<svg width="112" height="112" viewBox="0 0 112 112" fill="none" xmlns="http://www.w3.org/2000/svg">
<rect width="112" height="112" rx="56" fill="white" fill-opacity="0.15"/>
<path d="M57.5 57.5V66.5C57.5 67.3284 56.8284 68 56 68C55.1716 68 54.5 67.3284 54.5 66.5V57.5H45.5C44.6716 57.5 44 56.8284 44 56C44 55.1716 44.6716 54.5 45.5 54.5H54.5V45.5C54.5 44.6716 55.1716 44 56 44C56.8284 44 57.5 44.6716 57.5 45.5V54.5H66.5C67.3284 54.5 68 55.1716 68 56C68 56.8284 67.3284 57.5 66.5 57.5H57.5Z" fill="white"/>
</svg>
